<svg xmlns="http://www.w3.org/2000/svg" viewBox="0 0 32 32">
  <!-- Brain shape with colored halves -->
  <g>
    <!-- Left half - Human side (pink) -->
    <path d="M16 6c-6 0-10 4-10 12 0 6 4 10 10 10v-22z" fill="#ffb3d9"/>
    
    <!-- Right half - AI side (green) -->
    <path d="M16 6c6 0 10 4 10 12 0 6-4 10-10 10v-22z" fill="#90ee90"/>
    
    <!-- Brain outline -->
    <path d="M16 28c-6 0-10-4-10-10 0-8 4-12 10-12s10 4 10 12c0 6-4 10-10 10z" fill="none" stroke="black" stroke-width="1.5"/>
    
    <!-- Center dividing line -->
    <line x1="16" y1="6" x2="16" y2="28" stroke="black" stroke-width="1"/>
  </g>
  
  <!-- Left side - Human/Organic brain -->
  <g fill="black">
    <!-- Organic brain folds/curves -->
    <path d="M8 12c0-1.5 1-2 2-2s2 0.5 2 2c0 1-0.5 1.5-1 1.5" opacity="0.7"/>
    <path d="M9 16c0-1 0.8-1.5 1.5-1.5s1.5 0.5 1.5 1.5c0 0.8-0.5 1.2-1 1.2" opacity="0.7"/>
    <path d="M8 20c0-1.2 1-1.8 1.8-1.8s1.7 0.6 1.7 1.8c0 0.9-0.5 1.4-1 1.4" opacity="0.7"/>
    <path d="M10 23c0-0.8 0.6-1.2 1.2-1.2s1.3 0.4 1.3 1.2" opacity="0.7"/>
  </g>
  
  <!-- Right side - AI/Digital brain -->
  <g fill="black">
    <!-- Circuit patterns -->
    <rect x="18" y="10" width="6" height="1"/>
    <rect x="20" y="10" width="1" height="3"/>
    <circle cx="20.5" cy="13.5" r="1"/>
    
    <rect x="18" y="15" width="5" height="1"/>
    <rect x="23" y="15" width="1" height="2"/>
    <circle cx="23.5" cy="17.5" r="1"/>
    
    <rect x="19" y="19" width="4" height="1"/>
    <rect x="19" y="19" width="1" height="3"/>
    <circle cx="19.5" cy="22.5" r="1"/>
    
    <!-- Binary dots -->
    <circle cx="25" cy="11" r="0.5"/>
    <circle cx="25" cy="13" r="0.5"/>
    <circle cx="17.5" cy="17" r="0.5"/>
    <circle cx="22" cy="23" r="0.5"/>
  </g>
</svg>